<svg width="3470" height="358" xmlns="http://www.w3.org/2000/svg" preserveAspectRatio="xMidYMid meet" version="1.0">

 <g>
  <title>Layer 1</title>
  <g id="svg_1" fill="#000000" transform="translate(0 5400) scale(0.1 -0.1)">
   <path id="svg_2" d="m13219.87973,53948.95387c-14,-2 -74,-11 -135,-20c-372,-54 -660,-187 -866,-401c-184,-191 -275,-382 -326,-683c-15,-91 -17,-173 -17,-620c0,-568 4,-624 65,-840c60,-209 151,-364 303,-515c207,-206 424,-308 806,-382c138,-26 660,-26 800,0c210,40 393,99 530,170c331,172 541,429 632,772l32,120l1,448l0,449l-32,28c-20,18 -48,31 -75,35c-24,3 -331,5 -683,3c-592,-3 -643,-4 -668,-21c-61,-40 -62,-46 -62,-337c0,-260 0,-266 23,-297c32,-45 71,-53 270,-53l172,0l0,-53c0,-171 -63,-301 -186,-382c-76,-51 -159,-75 -279,-82c-236,-13 -414,66 -492,222c-55,108 -63,160 -72,450c-4,149 -4,387 0,530c8,275 17,333 71,437c28,53 101,124 157,152c98,49 268,69 392,46c115,-22 235,-107 311,-221c68,-103 12,-94 574,-97c534,-3 537,-3 565,51c18,32 12,140 -12,227c-102,376 -468,674 -994,809c-177,45 -242,52 -515,56c-146,2 -276,2 -290,-1z"/>
   <path id="svg_3" d="m23385.87973,53934.95387c-364,-63 -599,-174 -809,-383c-212,-210 -298,-463 -267,-787c48,-507 420,-792 1215,-930c353,-61 559,-123 629,-188c87,-82 71,-217 -34,-281c-88,-54 -160,-70 -335,-78c-124,-5 -150,-3 -224,16c-108,28 -157,57 -262,157c-51,48 -103,87 -125,95c-31,11 -131,14 -467,14l-429,0l-29,-33c-38,-42 -40,-77 -12,-212c37,-186 159,-385 312,-510c210,-172 450,-273 776,-326c160,-27 677,-27 815,-1c397,75 645,188 854,387c169,161 264,358 285,585c9,101 0,276 -18,357c-25,111 -80,230 -144,313c-104,135 -318,272 -525,335c-232,71 -316,91 -557,131c-148,25 -388,84 -473,116c-146,56 -202,127 -186,235c11,75 56,126 144,160c75,29 276,32 361,5c76,-24 146,-73 184,-127c17,-25 51,-58 74,-75l43,-30l443,-3c500,-4 503,-3 531,64c12,30 13,48 5,103c-28,182 -123,346 -295,509c-200,189 -445,307 -776,373c-155,31 -549,36 -704,9z"/>
   <path id="svg_4" d="m29679.87973,53929.95387c-465,-69 -843,-310 -1030,-658c-54,-100 -86,-182 -115,-297c-46,-185 -50,-244 -50,-780c0,-441 2,-519 18,-615c58,-352 198,-606 438,-799c179,-143 389,-231 685,-288c108,-21 148,-23 419,-23c272,0 312,2 425,24c277,52 520,157 688,299c245,206 376,455 429,812c11,75 17,220 20,502c8,608 -12,798 -109,1038c-61,151 -124,245 -257,383c-155,162 -388,293 -651,366c-231,64 -617,79 -910,36zm493,-810c164,-43 264,-141 317,-312c32,-104 48,-518 32,-867c-13,-292 -29,-372 -93,-469c-149,-226 -529,-253 -725,-52c-62,64 -110,171 -124,277c-16,120 -23,638 -12,854c9,172 14,212 35,273c57,163 151,253 310,296c69,18 189,19 260,0z"/>
   <path id="svg_5" d="m449.87973,53923.95387c-148,-18 -330,-52 -339,-63c-5,-6 -21,-78 -35,-161c-96,-549 -33,-1101 183,-1610c332,-782 1006,-1346 1836,-1534c243,-56 342,-65 665,-65c256,0 314,3 440,22c192,30 206,35 214,75c45,216 60,384 59,642c-1,251 -18,417 -68,640c-82,367 -260,746 -493,1043c-90,116 -305,331 -425,426c-379,299 -824,492 -1312,568c-148,23 -593,34 -725,17z"/>
   <path id="svg_6" d="m4184.87973,53904.95387c-17,-5 -44,-23 -60,-40l-30,-31l0,-1618c0,-1757 -3,-1649 54,-1688c24,-17 85,-18 941,-18c964,0 979,1 1185,47c547,123 835,463 835,990c0,174 -37,303 -123,434c-86,129 -170,210 -284,274c-24,13 -43,27 -43,32c0,4 17,19 38,32c167,105 291,277 327,452c38,185 -1,457 -90,634c-30,60 -114,168 -166,215c-154,139 -382,231 -669,272c-97,13 -254,16 -1000,19c-524,2 -897,-1 -915,-6zm1613,-754c23,-10 59,-37 80,-61c123,-140 87,-379 -71,-463l-52,-27l-312,-3l-313,-3l0,291l0,291l313,-3c277,-3 317,-5 355,-22zm21,-1290c72,-24 148,-100 179,-180c58,-152 -5,-332 -141,-404l-52,-27l-337,-3l-338,-3l0,309c0,233 3,311 13,321c9,10 78,12 317,8c255,-3 314,-7 359,-21z"/>
   <path id="svg_7" d="m7444.87973,53907.95387c-35,-9 -77,-45 -91,-79c-12,-28 -14,-290 -14,-1625c0,-1747 -4,-1634 58,-1676c25,-17 59,-18 462,-18c400,0 438,1 463,18c64,42 62,19 65,589l3,518l173,0l174,0l20,-42c11,-24 70,-144 130,-268c60,-124 163,-335 229,-470c66,-135 133,-260 148,-279c61,-71 59,-71 550,-71c410,0 443,1 475,19c25,13 39,30 49,59c17,46 15,51 -116,287c-128,232 -177,323 -216,395c-22,41 -43,80 -47,85c-4,6 -24,42 -45,80c-20,39 -75,138 -121,221c-46,83 -84,155 -84,160c0,5 32,30 72,54c64,40 239,201 278,256c47,65 59,85 88,139c81,156 114,302 114,505c1,444 -178,754 -552,958c-196,107 -392,158 -694,182c-128,10 -1532,12 -1571,3zm1531,-807c116,-37 193,-152 202,-299c9,-157 -52,-273 -173,-329c-48,-22 -63,-23 -332,-26l-283,-4l-1,284c-1,156 -1,304 -1,329c0,26 3,52 7,59c12,20 514,8 581,-14z"/>
   <path id="svg_8" d="m10612.87973,53895.95387c-23,-11 -50,-32 -60,-47c-17,-27 -18,-95 -18,-1639c0,-1576 0,-1611 19,-1642c35,-58 39,-58 522,-58c484,0 476,-1 514,61c20,31 20,58 20,1632c0,1773 5,1647 -64,1688c-29,18 -59,19 -461,21c-405,3 -432,2 -472,-16z"/>
   <path id="svg_9" d="m15408.87973,53905.95387c-46,-15 -69,-31 -84,-61c-13,-25 -15,-222 -15,-1635c0,-1754 -4,-1640 57,-1681c26,-18 52,-19 459,-19c466,0 465,0 501,54c17,24 18,74 23,611l5,585l492,3l492,2l3,-583c3,-537 4,-585 21,-610c41,-64 28,-62 503,-62c482,0 469,-2 504,70c20,41 20,59 20,1631c0,1519 -1,1591 -18,1624c-12,22 -35,44 -63,58l-44,23l-416,-3l-416,-3l-36,-28c-23,-17 -40,-41 -47,-65c-6,-23 -10,-238 -10,-585l0,-547l-492,2l-493,3l-5,570c-5,621 -3,594 -64,631c-29,18 -60,19 -441,21c-225,1 -422,-2 -436,-6z"/>
   <path id="svg_10" d="m18644.87973,53907.95387c-32,-8 -74,-42 -90,-73c-12,-24 -15,-89 -15,-375c0,-396 1,-403 74,-436c38,-17 74,-19 463,-19l423,0l2,-1203l3,-1204l28,-36c17,-23 41,-40 65,-47c50,-13 824,-13 874,0c23,7 48,24 63,44l25,33l2,1204l3,1204l435,5c303,3 441,9 455,17c11,6 31,23 45,38l25,27l0,366c0,364 0,367 -22,398c-49,68 43,64 -1471,63c-752,-1 -1376,-4 -1387,-6z"/>
   <path id="svg_11" d="m25544.87973,53896.95387c-23,-11 -50,-32 -60,-48c-20,-28 -20,-57 -20,-1639c0,-1522 1,-1612 18,-1638c42,-64 26,-62 523,-62c494,0 489,-1 522,60c15,26 18,89 22,545l5,515l380,6c209,3 405,11 435,17c308,60 455,113 613,222c93,63 140,107 219,206c140,174 201,379 201,674c0,273 -49,455 -171,640c-181,274 -472,432 -916,497c-93,14 -239,17 -921,20c-776,3 -812,3 -850,-15zm1499,-782c127,-19 184,-61 239,-178c52,-111 48,-283 -8,-372c-50,-79 -114,-121 -214,-140c-29,-5 -161,-10 -292,-10l-239,0l0,348c0,192 3,352 7,355c10,11 430,8 507,-3z"/>
   <path id="svg_12" d="m31699.87973,53898.95387c-19,-8 -45,-27 -57,-42c-22,-27 -22,-30 -23,-399l0,-371l26,-31c14,-17 42,-35 62,-41c23,-6 201,-10 455,-10l417,0l0,-1201c0,-1177 0,-1202 20,-1233c38,-62 30,-61 514,-61c409,0 443,1 468,18c61,42 58,-18 58,1287l0,1190l423,0c393,0 425,2 464,19c73,34 73,33 73,436c0,394 0,392 -64,431c-30,18 -79,19 -1416,21c-1221,2 -1389,1 -1420,-13z"/>
  </g>
 </g>
</svg>